<?xml version="1.0"?>
<svg xmlns:rdf="http://www.w3.org/1999/02/22-rdf-syntax-ns#" xmlns="http://www.w3.org/2000/svg" xmlns:cc="http://web.resource.org/cc/" xmlns:dc="http://purl.org/dc/elements/1.1/" xmlns:svg="http://www.w3.org/2000/svg" id="svg602" xml:space="preserve" viewBox="0 0 230.16 185.36" version="1.0">
  <path id="path612" d="m53.778 83.434c-0.901-4.493-4.996-9.574-8.013-13.113-2.709-3.338-10.012-8.136-18.067-16.464-2.542-2.405-4.106-4.044-6.119-7.43-2.26-3.802-2.424-10.82-0.583-14.861 1.898-4.166 5.114-6.943 6.994-8.305l5.828-4.226-2.914-4.662c-0.53-0.848-0.985-7.9836 3.351-11.51 4.639-3.6176 10.352-2.8822 13.987-2.6226 6.564 0.46881 9.208 1.5195 13.113 2.9139 6.294 2.2481 11.364 4.9538 17.484 7.8677 3.448-1.9427 7.098-3.2608 10.344-2.7683 3.796 0.576 6.116 2.5763 8.159 4.6623 2.522 2.576 3.068 4.916 3.788 7.576 1.08 3.993 2.46 8.125 5.54 11.511 3.14 3.462 6.28 5.693 10.49 7.722 6.77 3.265 13.63 5.486 20.69 7.285 7.42 1.892 13.87 4.345 20.54 7.285 8.09 3.568 15.83 8.741 23.31 13.55-1.5-3.06-3.51-5.955-6.26-8.305-2.83-2.409-5.62-3.697-9.62-5.537-2.65-1.219-5.44-2.137-8.16-3.205 1.31-3.448 3.63-6.899 7.43-9.034 3.38-1.896 7.88-3.414 12.1-2.185 6.27 1.83 11.35 6.624 15.15 10.053 5.13 4.633 9.81 9.423 13.4 14.57 7.43 10.637 12.39 20.184 16.61 28.848 2.24 4.594 5.08 9.06 6.7 13.11 1.29 3.23 1.86 6.76-0.58 9.62-1.74 2.04-4.18 3.46-7.14 3.35-3.74-0.14-7.39-2.48-10.34-6.7-5.26-7.53-4.42-8.84-15.16-24.625-0.19 1.894 0.18 3.94 0.73 5.683 1.44 4.522 3.43 8.142 5.69 11.802 3.42 5.57 5.83 11.23 7.86 17.19 1.31 3.42 2.5 6.99 2.48 10.05-0.21 3.79 0 6.27-1.31 10.06 4.32-0.05 7.96 0.87 10.49 3.2 3.15 2.92 5.12 5.78 5.1 9.47-0.03 3.99-1.32 6.55-3.94 9.04-2.48 2.36-4.9 4.23-8.59 5.1-6.07 1.42-11.7 2.23-19.53 2.04-5.67-0.15-11.36-0.26-17.92-0.44-7.91-0.21-14.09 0.02-23.31 1.02-3.79 0.41-7.6 0.82-11.36 1.46l-11.22 1.89c0.97 2.28 0.91 4.18 0.14 6.27-0.73 1.99-2.45 2.94-4.51 3.49-1.92 0.52-4.46 0.18-6.27-1.31-1.49-1.23-2.02-4.01-1.75-6.26 0.21-1.73 1.82-3.95 3.5-4.96 1.87-1.12 4.42-2.77 7.29-3.49 3.25-0.83 6.07-1.95 9.61-3.06l-32.2 2.33c0.78 3.54 0.75 5.91-1.89 8.01-2.07 1.64-5.81 1.93-8.598-0.58-1.631-1.47-1.639-4.33-0.728-6.41 1.323-3.02 6.176-4.71 10.056-5.39l22.43-3.94-34.38-2.18c-0.389 2.91-1.136 4.78-3.351 5.68-2.35 0.95-4.274 1.5-6.411-0.58-1.506-1.47-2.091-4.21-1.02-6.56 0.92-2.02 2.595-3.18 5.682-3.93 2.061-0.51 3.886-0.64 6.411-0.59 11.169-0.19 22.339-0.09 33.509-0.29-1.21-2.43-1.99-5.29-1.89-8.16-6.9 0.34-12.54 0.86-19.38-1.16-7.775-2.3-12.226-4.97-18.358-11.37-5.038-5.26-8.387-9.24-12.53-16.61-1.976-3.51-3.011-5-5.391-10.78-0.243 2.77-0.298 4.99 0.583 7.43 1.256 3.49 3.37 5.87 3.351 8.16-0.042 5.68-1.55 9.17-3.934 13.55-2.424 4.46-5.858 6.96-11.51 9.03l-20.253 7.43c0.34 3.36 0.28 5.43-1.456 7.14-1.713 1.69-3.821 2.97-6.848 2.04-1.733-0.53-2.915-1.86-3.351-4.08-0.341-1.03-0.115-3.26 1.457-4.8 3.479-3.42 6.945-5.54 11.51-7.87l-18.504 4.37c0.729 1.84-0.11 4.06-1.894 5.83-1.461 1.45-4.48 1.93-6.994 0-1.712-1.32-2.107-4.7-1.165-6.41 1.437-2.61 4.031-3.26 7.139-2.63l12.822-11.65-21.127 5.53c-0.34 1.66-0.755 2.82-1.8939 3.65-1.727 1.26-4.0585 1.76-6.265 0.58-1.7759-0.95-2.7767-2.99-2.6226-5.54 0.13734-2.26 1.4904-3.75 3.9339-4.66 2.2674-0.84 3.4481-0.34 5.3908 1.02l16.756-5.97c-4.42-1.46-11.705-2.63-14.425-2.48-0.534 1.17-1.039 2.79-2.3308 2.91-1.2819 0.13-2.8322 0.16-4.371-1.89-1.2295-1.64-1.1657-3.03-0.1457-5.1 1.301-2.46 5.0316-5.02 8.3045-4.22 10.277 2.5 20.078 4.92 30.306 7.57 2.302 0.6 4.111 1.65 5.828 0.73 1.829-0.98 1.737-2.9 2.039-5.54 0.281-4.84-0.291-8.79-0.728-13.4-0.534-7.043-0.607-11.105 2.04-16.902 0.243-0.532 1.469-1.696 1.165-3.934z"/>
  <path id="path613" fill-rule="evenodd" fill="#fff" d="m37.46 23.989c-4.614 2.914-7.978 4.986-9.907 10.053-1.714 4.5-1.225 8.728 2.039 12.968 3.729 4.842 7.235 5.426 11.948 4.662 5.777-0.936 7.877-4.746 8.159-9.762 0.253-4.503-5.828-10.636-12.239-17.921z"/>
  <path id="path614" d="m346.76 517.94a7.4306 7.4306 0 1 1 -14.86 0 7.4306 7.4306 0 1 1 14.86 0z" fill-rule="evenodd" transform="matrix(1.1765 0 0 1.1765 -331.01 -573.4)" stroke="#fff" stroke-width=".125" fill="#fff"/>
  <path id="path615" fill-rule="evenodd" transform="matrix(.76471 0 0 .76471 -192.74 -361.16)" d="m346.76 517.94a7.4306 7.4306 0 1 1 -14.86 0 7.4306 7.4306 0 1 1 14.86 0z"/>
  <path id="path616" fill-rule="evenodd" fill="#fff" d="m132.6 150.6c2.96-0.34 5.93-0.68 8.89-1.02-4.61-7.38-3.27-13.92-0.29-17.19 4.84-5.32 11.9-8.11 22-7.29-15.4-5.68-26.87 1.83-30.6 8.6-2.99 5.65-1.41 14.96 0 16.9z"/>
<metadata><rdf:RDF><cc:Work><dc:format>image/svg+xml</dc:format><dc:type rdf:resource="http://purl.org/dc/dcmitype/StillImage"/><cc:license rdf:resource="http://creativecommons.org/licenses/publicdomain/"/><dc:publisher><cc:Agent rdf:about="http://openclipart.org/"><dc:title>Openclipart</dc:title></cc:Agent></dc:publisher><dc:title>Frog silhouette</dc:title><dc:date>2007-10-21T10:24:22</dc:date><dc:description>amphibian, animal, clip art, clipart, frog, image, media, png, public domain, silhouette, svg, </dc:description><dc:source>http://openclipart.org/detail/7273/frog-silhouette-by-wipp</dc:source><dc:creator><cc:Agent><dc:title>wipp</dc:title></cc:Agent></dc:creator><dc:subject><rdf:Bag><rdf:li>amphibian</rdf:li><rdf:li>animal</rdf:li><rdf:li>clip art</rdf:li><rdf:li>clipart</rdf:li><rdf:li>frog</rdf:li><rdf:li>image</rdf:li><rdf:li>media</rdf:li><rdf:li>png</rdf:li><rdf:li>public domain</rdf:li><rdf:li>silhouette</rdf:li><rdf:li>svg</rdf:li></rdf:Bag></dc:subject></cc:Work><cc:License rdf:about="http://creativecommons.org/licenses/publicdomain/"><cc:permits rdf:resource="http://creativecommons.org/ns#Reproduction"/><cc:permits rdf:resource="http://creativecommons.org/ns#Distribution"/><cc:permits rdf:resource="http://creativecommons.org/ns#DerivativeWorks"/></cc:License></rdf:RDF></metadata></svg>
