<?xml version="1.0" encoding="UTF-8" standalone="no"?>
<svg
   sodipodi:docname="logo_minimalist.svg"
   id="svg63"
   version="1.1"
   viewBox="0 0 453.223 453.233"
   height="453.233"
   width="453.223"
   inkscape:version="1.1.2 (0a00cf5339, 2022-02-04)"
   xmlns:inkscape="http://www.inkscape.org/namespaces/inkscape"
   xmlns:sodipodi="http://sodipodi.sourceforge.net/DTD/sodipodi-0.dtd"
   xmlns="http://www.w3.org/2000/svg"
   xmlns:svg="http://www.w3.org/2000/svg">
  <sodipodi:namedview
     id="namedview65"
     pagecolor="#ffffff"
     bordercolor="#666666"
     borderopacity="1.0"
     inkscape:pageshadow="2"
     inkscape:pageopacity="0.0"
     inkscape:pagecheckerboard="true"
     showgrid="false"
     inkscape:zoom="1.2874173"
     inkscape:cx="-42.332816"
     inkscape:cy="179.429"
     inkscape:window-width="2560"
     inkscape:window-height="1403"
     inkscape:window-x="0"
     inkscape:window-y="0"
     inkscape:window-maximized="1"
     inkscape:current-layer="svg63" />
  <defs
     id="defs56">
    <style
       id="style54">
      .cls-1 {
        fill: #2b2e34;
      }
    </style>
  </defs>
  <path
     id="Pfad_2"
     data-name="Pfad 2"
     class="cls-1"
     d="m 59.649,23.841 c -35.273,0 -35.819,35.808 -35.819,35.808 v 369.744 h 369.744 c 34.56,0 35.808,-35.819 35.808,-35.819 V 23.83 L 252.471,23.84 Z M 255.513,0 h 197.71 v 393.941 c 0,0 0,59.292 -59.281,59.292 L 0.001,453.223 V 59.46 c 0,0 0,-59.46 59.46,-59.46 z"
     style="fill:#000000" />
  <g
     id="Gruppe_2"
     data-name="Gruppe 2"
     transform="translate(90.82,142.984)"
     style="fill:#000000">
    <path
       id="Pfad_3"
       data-name="Pfad 3"
       class="cls-1"
       d="M 29.291,147.453 V 91.947 c 0,-2.937 -0.042,-5.727 -0.1,-8.37 -0.084,-2.643 -0.189,-5.433 -0.336,-8.37 C 28.708,72.27 28.446,68.819 28.089,64.855 Q 27.523,58.908 26.757,50.874 25.991,42.84 24.89,31.374 l -8.37,-0.22 87,116.3 h 29.955 V -6.73 H 101.1 v 42.07 q 0,9.471 0.22,17.505 0.22,8.055 0.545,15.208 c 0.231,4.772 0.514,9.4 0.881,13.876 0.367,4.476 0.776,8.884 1.217,13.205 q 0.661,6.513 1.542,13.331 h 6.167 L 26.428,-6.73 H -3.087 v 154.183 z m 187.767,-0.1 a 48,48 0 0 0 13.216,-6.4 36.891,36.891 0 0 0 9.366,-9.136 21.419,21.419 0 0 0 3.965,-10.572 l -6.167,-0.661 1.322,26.872 h 29.735 V -15.54 H 237 v 75.99 l 7.929,-1.542 a 22.436,22.436 0 0 0 -4.185,-11.128 41.571,41.571 0 0 0 -9.807,-9.8 50.439,50.439 0 0 0 -29.4,-9.471 49.142,49.142 0 0 0 -27.428,7.824 54.291,54.291 0 0 0 -18.942,21.586 q -6.938,13.766 -6.933,31.162 0,17.841 6.933,31.382 a 54.572,54.572 0 0 0 18.942,21.365 49.058,49.058 0 0 0 27.428,7.824 51.964,51.964 0 0 0 15.523,-2.307 m -23.79,-28.086 a 29.419,29.419 0 0 1 -10.132,-12.114 41.958,41.958 0 0 1 -3.629,-18.061 41.4,41.4 0 0 1 3.629,-17.841 29.419,29.419 0 0 1 10.132,-12.115 26.637,26.637 0 0 1 15.313,-4.405 27.143,27.143 0 0 1 15.417,4.405 29.976,29.976 0 0 1 10.352,12.114 40.367,40.367 0 0 1 3.748,17.842 40.9,40.9 0 0 1 -3.744,18.061 29.976,29.976 0 0 1 -10.356,12.114 27.143,27.143 0 0 1 -15.418,4.405 26.637,26.637 0 0 1 -15.313,-4.405"
       transform="translate(3.087,15.54)"
       style="fill:#000000" />
  </g>
</svg>
